<?xml version="1.0" encoding="UTF-8"?>
<!-- Generated by Pixelmator Pro 3.7 -->
<svg width="1024" height="1024" viewBox="0 0 1024 1024" xmlns="http://www.w3.org/2000/svg">
    <g id="Group">
        <linearGradient id="linearGradient1" x1="1" y1="512" x2="1025" y2="512" gradientUnits="userSpaceOnUse">
            <stop offset="0.000463" stop-color="#8721ff" stop-opacity="1"/>
            <stop offset="1" stop-color="#00b6ff" stop-opacity="1"/>
        </linearGradient>
        <path id="Rounded-Rectangle" fill="url(#linearGradient1)" fill-rule="evenodd" stroke="none" visibility="hidden" d="M 1 1024 L 1025 1024 L 1025 0 L 1 0 Z"/>
        <path id="Path" fill="#000000" stroke="none" d="M 255.430588 785.263184 C 254.049835 784.824219 249.713699 783.492004 245.794678 782.302734 C 241.875656 781.113403 230.861389 775.821655 221.317993 770.543518 C 211.774826 765.265259 195.213303 757.220947 184.51384 752.667847 C 161.145508 742.721558 156.139709 742.266846 144.545288 749.036926 C 129.814102 757.637634 123.994926 754.927246 116.742294 736.086975 C 108.91716 715.758911 97.693161 704.240967 80.282082 698.67334 C 67.713615 694.653687 61.500305 689.456299 61.500305 682.961792 C 61.500305 676.8479 66.754372 674.099548 79.787529 673.396118 C 95.492767 672.54834 102.798126 674.35907 139.032394 688.083252 C 156.10582 694.550049 174.030289 701.136597 178.862869 702.719849 C 198.367661 709.110474 264.792358 719.601013 285.750671 719.601013 C 293.639709 719.601013 301.085632 718.31604 311.880463 715.091919 C 322.298096 711.980347 331.779358 710.301453 342.470032 709.675232 C 359.397888 708.683655 367.737518 706.514526 382.310577 699.312378 C 394.210358 693.431641 411.789276 689.19458 430.219604 687.765381 C 437.986237 687.163086 444.340759 686.475098 444.340759 686.23645 C 444.340759 685.997986 440.134033 675.200989 434.99231 662.243286 C 417.966553 619.336304 414.031464 600.261597 413.749054 559.263184 C 413.555176 531.215698 414.634338 525.99353 426.409149 498.001953 C 433.337921 481.529724 434.609955 477.27887 434.754059 470.117188 C 434.919952 461.868164 434.664185 461.213867 424.011566 442.639709 C 417.055908 430.511414 408.547302 412.536682 400.544037 393.066833 C 390.028748 367.484131 386.245911 359.925842 377.261108 346.539612 C 364.953186 328.203735 357.519073 313.352051 341.139771 274.386169 C 334.519409 258.635925 328.13324 245.423218 326.35083 243.785706 C 324.624908 242.20166 316.717072 239.117859 308.777802 236.932617 C 288.639191 231.389343 281.697845 228.776306 278.425476 225.505981 C 275.940002 223.022095 275.811493 222.359375 277.366791 220.046509 C 278.76123 217.972961 280.297882 217.628906 284.605408 218.426086 C 292.261169 219.842957 297.481384 218.200195 297.481384 214.374084 C 297.481384 212.693237 293.58493 206.237366 288.822662 200.02771 C 280.521149 189.203186 274.887238 178.550232 274.887238 173.678162 C 274.887238 169.870422 277.396301 169.173889 280.16983 172.211365 C 282.749146 175.036133 282.763977 175.027466 281.287903 171.556519 C 279.765839 167.977234 280.328674 165.004761 282.528503 165.004761 C 283.197906 165.004761 288.726776 170.40741 294.814819 177.010681 C 300.902985 183.613892 313.172333 194.717529 322.079346 201.684082 C 343.694153 218.589966 347.302887 222.676636 361.469208 246.287292 C 368.130646 257.390381 379.138885 274.142578 385.932098 283.515015 C 401.923523 305.576477 408.320099 316.322998 414.51712 331.538818 C 421.969574 349.834229 444.297089 389.275696 452.709534 399.002808 C 467.583801 416.203125 471.402191 421.927246 476.284943 434.343689 C 479.012054 441.277588 481.576447 446.950562 481.983643 446.950562 C 483.687561 446.950562 490.934204 423.12146 490.251251 419.762939 C 489.856934 417.823975 486.704987 413.674438 483.247009 410.541565 C 479.789001 407.408752 476.115875 403.358582 475.084595 401.541321 C 472.193817 396.447815 472.744019 388.437805 476.347473 383.152832 C 478.480469 380.024353 479.485504 376.679382 479.485504 372.709229 C 479.485504 368.175598 480.106873 366.526123 482.261292 365.339539 C 484.62149 364.039856 484.984863 362.763 484.688232 356.810913 L 484.339478 349.810852 L 494.324829 348.966248 C 503.972534 348.150024 504.558472 347.871948 511.650543 340.742981 C 522.717651 329.617676 528.144043 327.157043 539.777344 327.988159 C 564.944458 329.786255 589.94458 357.46698 589.94458 383.534668 L 589.94458 392.434265 L 596.535706 397.025146 C 604.250793 402.398804 613.144653 413.757507 615.989014 421.870422 C 617.177063 425.259033 618.328857 434.62915 618.817749 444.883118 C 619.421143 457.540039 620.241577 463.308777 621.875549 466.386841 L 624.108765 470.593323 L 613.359985 469.897034 C 599.715759 469.013245 589.631409 463.320313 585.890869 454.391602 C 583.50946 448.706604 583.511475 448.610474 586.172363 441.223816 C 589.529297 431.904663 589.694214 426.611206 586.797791 421.156006 L 584.528015 416.880676 L 582.529236 420.620483 C 575.18158 434.368347 563.792603 442.280823 549.239685 443.750916 C 544.198608 444.259827 539.150757 445.621948 538.022095 446.777954 C 535.501709 449.359497 535.375061 454.649841 537.738098 458.638245 C 539.317749 461.304626 541.223572 461.635132 555.624939 461.739807 C 570.332336 461.846741 572.953125 462.323547 585.550476 467.184692 C 599.354126 472.510986 599.364136 472.512207 623.834534 472.421204 C 644.529236 472.344482 649.994446 471.814209 659.210205 468.989563 C 675.205505 464.086487 683.735901 463.438049 706.067444 465.427368 C 717.104919 466.410522 737.150269 467.854492 750.612549 468.635925 C 771.457886 469.846008 777.230591 470.75116 789.52417 474.736267 C 806.492065 480.237 819.674377 480.863647 835.719788 476.932922 C 843.559631 475.012146 846.49823 474.820068 847.581604 476.157043 C 848.664978 477.494202 848.64856 478.394958 847.515381 479.793396 C 845.388855 482.417908 845.645325 483.822388 848.2052 483.571655 C 849.580444 483.436829 850.547974 484.626892 850.793701 486.755615 C 851.309082 491.218445 841.156067 498.562378 831.16217 500.9552 C 827.246338 501.892761 820.843567 503.407593 816.934265 504.321472 C 812.462708 505.366638 809.53656 506.912598 809.046509 508.48877 C 808.617981 509.867004 809.698792 514.605225 811.44812 519.018188 C 815.525208 529.302917 815.450989 530.605835 810.788025 530.605835 C 807.927673 530.605835 805.284485 528.688599 800.432556 523.094238 C 796.849365 518.963013 789.229431 511.902222 783.499695 507.40448 C 770.909851 497.521057 768.656738 497.252869 747.331909 503.10022 C 724.050232 509.484314 705.109009 512.128906 672.16217 513.595581 C 645.874207 514.765991 640.437866 515.453857 629.484863 518.997009 C 619.662598 522.174377 611.335693 523.467468 591.200806 524.942871 C 571.06842 526.418091 564.782288 527.394043 562.315796 529.428284 C 558.907166 532.239258 533.600281 567.432129 525.509094 580.612427 C 514.233276 598.982178 510.498016 617.949951 516.136475 628.203857 C 518.658936 632.790405 521.045044 634.468079 531.623291 639.091309 C 553.29834 648.564575 560.522095 654.431152 572.002319 671.885376 C 575.294495 676.891235 576.886963 677.453003 615.661194 687.288818 C 632.23877 691.494141 649.191711 696.098267 653.333923 697.520508 C 658.29657 699.224243 665.788513 700.124756 675.300171 700.160583 C 689.637207 700.2146 689.875732 700.155945 710.446167 691.407715 C 737.01532 680.109375 739.098999 679.427856 751.868286 677.858765 C 764.968933 676.248901 779.400146 677.890259 808.352905 684.283203 C 824.820129 687.919312 834.29071 689.16626 846.18512 689.264221 L 862.050964 689.395081 L 866.896606 684.599426 C 878.680359 672.937561 884.262512 672.220703 902.927551 679.971802 C 913.846191 684.506226 917.926086 685.385986 931.364441 686.104858 C 952.694336 687.245728 964 691.856689 964 699.414795 C 964 706.874268 944.23291 719.734985 921.950317 726.77124 C 906.894043 731.526306 909.813416 731.393921 844.127014 730.296265 C 817.148682 729.845337 816.084351 729.947998 797.967773 734.747314 C 787.768066 737.449097 766.86853 741.765808 751.524841 744.339905 C 736.181091 746.914063 714.871338 751.503052 704.170593 754.537842 C 653.96582 768.776001 634.840088 771.360107 588.063232 770.229248 C 556.435608 769.464478 537.707825 767.33667 526.523865 763.237061 C 523.236694 762.032104 521.488647 762.737915 513.568787 768.468262 C 495.082001 781.843994 476.080566 784.948303 424.259003 783.059937 C 394.156464 781.962952 386.557373 781.150513 364.85849 776.708313 C 336.838348 770.972229 342.833252 770.555847 306.268829 780.779297 C 292.268158 784.693848 262.030029 787.362061 255.432648 785.264832 Z"/>
    </g>
</svg>
